<svg xmlns="http://www.w3.org/2000/svg" viewBox="0 0 800 200">
  <style>
    @keyframes pulse { 0%,100%{opacity:.15} 50%{opacity:.6} }
    @keyframes flow { 0%{stroke-dashoffset:40} 100%{stroke-dashoffset:0} }
    @keyframes glow { 0%,100%{opacity:.4} 50%{opacity:1} }
    @keyframes scan { 0%{transform:translateX(-200px)} 100%{transform:translateX(1000px)} }
    .net{stroke:#6c8cff;stroke-width:.5;fill:none;opacity:.15}
    .net-pulse{stroke:#6c8cff;stroke-width:1;fill:none;stroke-dasharray:4 6;animation:flow 2s linear infinite}
    .node-bg{fill:#6c8cff;opacity:.08}
    .node-ring{fill:none;stroke:#6c8cff;stroke-width:.5;opacity:.3}
    .node-core{fill:#6c8cff}
    .p1{animation:pulse 3s ease-in-out infinite}
    .p2{animation:pulse 3s ease-in-out infinite .5s}
    .p3{animation:pulse 3s ease-in-out infinite 1s}
    .p4{animation:pulse 3s ease-in-out infinite 1.5s}
    .p5{animation:pulse 3s ease-in-out infinite 2s}
    .p6{animation:pulse 3s ease-in-out infinite 2.5s}
    .title{font-family:'Segoe UI',system-ui,-apple-system,sans-serif;font-weight:200;font-size:42px;fill:#e8e6df;letter-spacing:12px}
    .sub{font-family:'Segoe UI',system-ui,-apple-system,sans-serif;font-weight:300;font-size:11px;fill:#888780;letter-spacing:3px}
    .ver{font-family:'Segoe UI',system-ui,-apple-system,sans-serif;font-weight:400;font-size:10px;fill:#6c8cff;letter-spacing:1px}
    .diamond{fill:#6c8cff;opacity:.8}
    .scan-line{fill:url(#scanGrad);animation:scan 4s linear infinite;opacity:.3}
    @media(prefers-color-scheme:light){
      .title{fill:#2C2C2A}
      .sub{fill:#5F5E5A}
      .net{stroke:#534AB7}
      .net-pulse{stroke:#534AB7}
      .node-bg{fill:#534AB7}
      .node-ring{stroke:#534AB7}
      .node-core{fill:#534AB7}
      .diamond{fill:#534AB7}
      .ver{fill:#534AB7}
      .scan-line{opacity:.15}
    }
  </style>
  <defs>
    <linearGradient id="scanGrad" x1="0" y1="0" x2="1" y2="0">
      <stop offset="0%" stop-color="#6c8cff" stop-opacity="0"/>
      <stop offset="50%" stop-color="#6c8cff" stop-opacity=".4"/>
      <stop offset="100%" stop-color="#6c8cff" stop-opacity="0"/>
    </linearGradient>
  </defs>
  <rect width="800" height="200" fill="#111110" rx="8"/>
  <rect class="scan-line" x="-200" y="0" width="200" height="200" rx="8"/>
  <g opacity=".5">
    <line class="net p1" x1="80" y1="60" x2="200" y2="90"/>
    <line class="net p2" x1="200" y1="90" x2="340" y2="55"/>
    <line class="net p3" x1="340" y1="55" x2="460" y2="85"/>
    <line class="net p4" x1="460" y1="85" x2="600" y2="50"/>
    <line class="net p5" x1="600" y1="50" x2="720" y2="75"/>
    <line class="net p1" x1="80" y1="140" x2="200" y2="110"/>
    <line class="net p2" x1="200" y1="110" x2="340" y2="145"/>
    <line class="net p3" x1="340" y1="145" x2="460" y2="115"/>
    <line class="net p4" x1="460" y1="115" x2="600" y2="150"/>
    <line class="net p5" x1="600" y1="150" x2="720" y2="125"/>
    <line class="net p2" x1="200" y1="90" x2="200" y2="110"/>
    <line class="net p3" x1="340" y1="55" x2="340" y2="145"/>
    <line class="net p4" x1="460" y1="85" x2="460" y2="115"/>
    <line class="net p5" x1="600" y1="50" x2="600" y2="150"/>
    <line class="net p1" x1="80" y1="60" x2="80" y2="140"/>
    <line class="net p6" x1="720" y1="75" x2="720" y2="125"/>
    <line class="net-pulse" x1="80" y1="100" x2="720" y2="100"/>
    <line class="net p2" x1="80" y1="60" x2="340" y2="145"/>
    <line class="net p4" x1="200" y1="110" x2="460" y2="85"/>
    <line class="net p5" x1="340" y1="55" x2="600" y2="150"/>
    <line class="net p6" x1="460" y1="115" x2="720" y2="75"/>
  </g>
  <g>
    <circle class="node-bg p1" cx="80" cy="60" r="8"/>
    <circle class="node-ring p1" cx="80" cy="60" r="8"/>
    <circle class="node-core p1" cx="80" cy="60" r="2.5"/>
    <circle class="node-bg p2" cx="200" cy="90" r="10"/>
    <circle class="node-ring p2" cx="200" cy="90" r="10"/>
    <circle class="node-core p2" cx="200" cy="90" r="3"/>
    <circle class="node-bg p3" cx="340" cy="55" r="7"/>
    <circle class="node-ring p3" cx="340" cy="55" r="7"/>
    <circle class="node-core p3" cx="340" cy="55" r="2"/>
    <circle class="node-bg p4" cx="460" cy="85" r="12"/>
    <circle class="node-ring p4" cx="460" cy="85" r="12"/>
    <circle class="node-core p4" cx="460" cy="85" r="3.5"/>
    <circle class="node-bg p5" cx="600" cy="50" r="9"/>
    <circle class="node-ring p5" cx="600" cy="50" r="9"/>
    <circle class="node-core p5" cx="600" cy="50" r="2.5"/>
    <circle class="node-bg p6" cx="720" cy="75" r="7"/>
    <circle class="node-ring p6" cx="720" cy="75" r="7"/>
    <circle class="node-core p6" cx="720" cy="75" r="2"/>
    <circle class="node-bg p1" cx="80" cy="140" r="6"/>
    <circle class="node-ring p1" cx="80" cy="140" r="6"/>
    <circle class="node-core p1" cx="80" cy="140" r="2"/>
    <circle class="node-bg p2" cx="200" cy="110" r="8"/>
    <circle class="node-ring p2" cx="200" cy="110" r="8"/>
    <circle class="node-core p2" cx="200" cy="110" r="2.5"/>
    <circle class="node-bg p3" cx="340" cy="145" r="11"/>
    <circle class="node-ring p3" cx="340" cy="145" r="11"/>
    <circle class="node-core p3" cx="340" cy="145" r="3"/>
    <circle class="node-bg p4" cx="460" cy="115" r="6"/>
    <circle class="node-ring p4" cx="460" cy="115" r="6"/>
    <circle class="node-core p4" cx="460" cy="115" r="2"/>
    <circle class="node-bg p5" cx="600" cy="150" r="10"/>
    <circle class="node-ring p5" cx="600" cy="150" r="10"/>
    <circle class="node-core p5" cx="600" cy="150" r="3"/>
    <circle class="node-bg p6" cx="720" cy="125" r="8"/>
    <circle class="node-ring p6" cx="720" cy="125" r="8"/>
    <circle class="node-core p6" cx="720" cy="125" r="2.5"/>
  </g>
  <polygon class="diamond" points="400,72 405,78 400,84 395,78"/>
  <text class="title" x="400" y="105" text-anchor="middle">GENESIS</text>
  <text class="sub" x="400" y="128" text-anchor="middle">SELF-MODIFYING COGNITIVE AI AGENT</text>
  <text class="ver" x="400" y="148" text-anchor="middle">v5.9.3  &#x2022;  225 modules  &#x2022;  119 services  &#x2022;  ~2900 tests  &#x2022;  13 boot phases</text>
  <line x1="200" y1="160" x2="600" y2="160" stroke="#6c8cff" stroke-width=".3" opacity=".3"/>
  <text class="sub" x="400" y="175" text-anchor="middle">PERCEIVE &#x2022; PLAN &#x2022; ACT &#x2022; VERIFY &#x2022; LEARN &#x2022; DREAM &#x2022; EVOLVE</text>
</svg>
